<svg width="280" height="280" viewBox="0 0 280 280" fill="none" xmlns="http://www.w3.org/2000/svg">
<rect x="3" y="3" width="274" height="274" rx="137" fill="white" stroke="#E50B19" stroke-width="6"/>
<path d="M33.7625 134.452L68.0972 100.118V135.215L33.7625 134.452Z" fill="#E50B19"/>
<path d="M106.247 217.619L71.9123 183.284H107.01L106.247 217.619Z" fill="#E50B19"/>
<rect x="77.2307" y="135.193" width="28.055" height="67.069" transform="rotate(-90 77.2307 135.193)" fill="#E50B19"/>
<path d="M144.184 97.7914H116.129L115.403 52.812L143.634 24.5812L144.184 97.7914Z" fill="#E50B19"/>
<path d="M105.271 97.0283H77.2159L76.8717 91.3431L105.484 62.7308L105.271 97.0283Z" fill="#E50B19"/>
<path d="M143.252 254.624L115.403 226.775L116.129 219.945H144.184L143.252 254.624Z" fill="#E50B19"/>
<rect x="144.184" y="210.715" width="28.055" height="67.069" transform="rotate(180 144.184 210.715)" fill="#E50B19"/>
<path d="M60.8489 172.984L33.3811 145.516L107.229 144.841V172.896L60.8489 172.984Z" fill="#E50B19"/>
<g clip-path="url(#clip0_88_32)">
<rect x="35.603" y="138.986" width="156" height="156" transform="rotate(-45 35.603 138.986)" stroke="#E50B19" stroke-width="4"/>
<path d="M145.912 247.881L93.6262 195.595C123.097 168.299 168.726 168.299 198.197 195.595L145.912 247.881Z" stroke="#E50B19" stroke-width="6"/>
<path d="M254.806 138.986L202.521 191.272C175.225 161.801 175.225 116.172 202.521 86.7008L254.806 138.986Z" stroke="#E50B19" stroke-width="6"/>
<path d="M147.169 31.3489L199.454 83.6342C169.983 110.93 124.354 110.93 94.8834 83.6342L147.169 31.3489Z" stroke="#E50B19" stroke-width="6"/>
<path d="M146.54 32.6845L179.217 65.3615C160.515 81.6369 132.565 81.6369 113.863 65.3615L146.54 32.6845Z" fill="#E50B19" stroke="#E50B19" stroke-width="7"/>
<path d="M254.099 138.986L221.422 171.663C205.146 152.961 205.146 125.011 221.422 106.309L254.099 138.986Z" fill="#E50B19" stroke="#E50B19" stroke-width="7"/>
<path d="M146.54 246.545L113.863 213.868C132.565 197.593 160.515 197.593 179.217 213.868L146.54 246.545Z" fill="#E50B19" stroke="#E50B19" stroke-width="7"/>
<path d="M38.2742 140.243L90.5595 87.9579C117.856 117.429 117.856 163.058 90.5595 192.529L38.2742 140.243Z" stroke="#E50B19" stroke-width="6"/>
<path d="M166.942 160.243L159.111 140.872L166.942 120.243L147.169 128.93L126.942 120.243L135.855 140.243L126.942 160.243L147.797 152.186L166.942 160.243Z" fill="#E50B19"/>
</g>
<defs>
<clipPath id="clip0_88_32">
<rect width="113" height="226" fill="white" transform="translate(145.775 25.8491)"/>
</clipPath>
</defs>
</svg>
