<svg width="1262" height="260" viewBox="0 0 1262 260" fill="none" xmlns="http://www.w3.org/2000/svg">
<path d="M33.9879 124.603L68.3227 90.2685L68.3227 125.366L33.9879 124.603Z" fill="#E50B19"/>
<path d="M106.473 207.77L72.1378 173.435L107.236 173.435L106.473 207.77Z" fill="#E50B19"/>
<rect x="77.4562" y="125.344" width="28.055" height="67.069" transform="rotate(-90 77.4562 125.344)" fill="#E50B19"/>
<path d="M144.409 87.9423H116.354L115.628 42.9628L143.859 14.732L144.409 87.9423Z" fill="#E50B19"/>
<path d="M105.496 87.1791H77.4414L77.0972 81.4939L105.709 52.8816L105.496 87.1791Z" fill="#E50B19"/>
<path d="M143.478 244.775L115.628 216.926L116.354 210.096H144.409L143.478 244.775Z" fill="#E50B19"/>
<rect x="144.409" y="200.865" width="28.055" height="67.069" transform="rotate(180 144.409 200.865)" fill="#E50B19"/>
<path d="M61.0744 163.134L33.6066 135.667L107.455 134.992V163.047L61.0744 163.134Z" fill="#E50B19"/>
<g clip-path="url(#clip0_76_2)">
<rect x="35.8284" y="129.137" width="156" height="156" transform="rotate(-45 35.8284 129.137)" stroke="#E50B19" stroke-width="4"/>
<path d="M93.8517 185.746C123.322 158.45 168.952 158.45 198.422 185.746L146.137 238.032L93.8517 185.746Z" stroke="#E50B19" stroke-width="6"/>
<path d="M202.746 181.422C175.45 151.952 175.45 106.322 202.746 76.8517L255.032 129.137L202.746 181.422Z" stroke="#E50B19" stroke-width="6"/>
<path d="M199.68 73.7851C170.209 101.081 124.58 101.081 95.1089 73.7851L147.394 21.4997L199.68 73.7851Z" stroke="#E50B19" stroke-width="6"/>
<path d="M179.443 55.5124C160.741 71.7878 132.791 71.7878 114.089 55.5124L146.766 22.8353L179.443 55.5124Z" fill="#E50B19" stroke="#E50B19" stroke-width="7"/>
<path d="M221.647 161.814C205.372 143.112 205.372 115.162 221.647 96.4601L254.324 129.137L221.647 161.814Z" fill="#E50B19" stroke="#E50B19" stroke-width="7"/>
<path d="M114.089 204.019C132.791 187.743 160.74 187.743 179.443 204.019L146.766 236.696L114.089 204.019Z" fill="#E50B19" stroke="#E50B19" stroke-width="7"/>
<path d="M90.785 78.1088C118.081 107.58 118.081 153.209 90.785 182.68L38.4997 130.394L90.785 78.1088Z" stroke="#E50B19" stroke-width="6"/>
<path d="M167.168 150.394L159.336 131.023L167.168 110.394L147.394 119.08L127.168 110.394L136.08 130.394L127.168 150.394L148.023 142.336L167.168 150.394Z" fill="#E50B19"/>
</g>
<path d="M309.433 157V89.928H326.585V115.272H332.345L350.521 89.928H369.209L345.401 122.312L371.769 157H352.185L332.089 130.376H326.585V157H309.433ZM377.2 137.16C377.2 132.808 378.395 129.011 380.784 125.768C383.259 122.44 386.672 119.88 391.024 118.088C395.376 116.296 400.368 115.4 406 115.4C408.816 115.4 411.675 115.613 414.576 116.04C417.477 116.467 419.995 117.149 422.128 118.088V114.504C422.128 110.237 420.848 106.952 418.288 104.648C415.813 102.344 412.101 101.192 407.152 101.192C403.483 101.192 399.984 101.832 396.656 103.112C393.328 104.392 389.829 106.269 386.16 108.744L380.656 97.48C385.093 94.5787 389.616 92.4027 394.224 90.952C398.917 89.5013 403.824 88.776 408.944 88.776C418.501 88.776 425.925 91.1653 431.216 95.944C436.592 100.723 439.28 107.549 439.28 116.424V137.8C439.28 139.592 439.579 140.872 440.176 141.64C440.859 142.408 441.925 142.877 443.376 143.048V157C441.84 157.256 440.432 157.469 439.152 157.64C437.957 157.811 436.933 157.896 436.08 157.896C432.667 157.896 430.064 157.128 428.272 155.592C426.565 154.056 425.499 152.179 425.072 149.96L424.688 146.504C421.787 150.259 418.16 153.16 413.808 155.208C409.456 157.256 405.019 158.28 400.496 158.28C396.059 158.28 392.048 157.384 388.464 155.592C384.965 153.715 382.192 151.197 380.144 148.04C378.181 144.797 377.2 141.171 377.2 137.16ZM418.928 140.616C419.867 139.592 420.635 138.568 421.232 137.544C421.829 136.52 422.128 135.581 422.128 134.728V127.944C420.08 127.091 417.861 126.451 415.472 126.024C413.083 125.512 410.821 125.256 408.688 125.256C404.251 125.256 400.581 126.237 397.68 128.2C394.864 130.077 393.456 132.595 393.456 135.752C393.456 137.459 393.925 139.08 394.864 140.616C395.803 142.152 397.168 143.389 398.96 144.328C400.752 145.267 402.885 145.736 405.36 145.736C407.92 145.736 410.437 145.267 412.912 144.328C415.387 143.304 417.392 142.067 418.928 140.616ZM455.308 157V89.928H515.468V157H498.316V104.904H472.46V157H455.308ZM531.058 157V90.056H548.21V134.088L578.29 89.928H593.906V157H576.754V113.992L547.058 157H531.058ZM625.046 157V104.904H603.798V89.928H663.574V104.904H642.198V157H625.046ZM668.325 137.16C668.325 132.808 669.52 129.011 671.909 125.768C674.384 122.44 677.797 119.88 682.149 118.088C686.501 116.296 691.493 115.4 697.125 115.4C699.941 115.4 702.8 115.613 705.701 116.04C708.602 116.467 711.12 117.149 713.253 118.088V114.504C713.253 110.237 711.973 106.952 709.413 104.648C706.938 102.344 703.226 101.192 698.277 101.192C694.608 101.192 691.109 101.832 687.781 103.112C684.453 104.392 680.954 106.269 677.285 108.744L671.781 97.48C676.218 94.5787 680.741 92.4027 685.349 90.952C690.042 89.5013 694.949 88.776 700.069 88.776C709.626 88.776 717.05 91.1653 722.341 95.944C727.717 100.723 730.405 107.549 730.405 116.424V137.8C730.405 139.592 730.704 140.872 731.301 141.64C731.984 142.408 733.05 142.877 734.501 143.048V157C732.965 157.256 731.557 157.469 730.277 157.64C729.082 157.811 728.058 157.896 727.205 157.896C723.792 157.896 721.189 157.128 719.397 155.592C717.69 154.056 716.624 152.179 716.197 149.96L715.813 146.504C712.912 150.259 709.285 153.16 704.933 155.208C700.581 157.256 696.144 158.28 691.621 158.28C687.184 158.28 683.173 157.384 679.589 155.592C676.09 153.715 673.317 151.197 671.269 148.04C669.306 144.797 668.325 141.171 668.325 137.16ZM710.053 140.616C710.992 139.592 711.76 138.568 712.357 137.544C712.954 136.52 713.253 135.581 713.253 134.728V127.944C711.205 127.091 708.986 126.451 706.597 126.024C704.208 125.512 701.946 125.256 699.813 125.256C695.376 125.256 691.706 126.237 688.805 128.2C685.989 130.077 684.581 132.595 684.581 135.752C684.581 137.459 685.05 139.08 685.989 140.616C686.928 142.152 688.293 143.389 690.085 144.328C691.877 145.267 694.01 145.736 696.485 145.736C699.045 145.736 701.562 145.267 704.037 144.328C706.512 143.304 708.517 142.067 710.053 140.616ZM741.569 157.896V142.664C743.617 142.579 745.452 142.067 747.073 141.128C748.694 140.189 750.102 138.611 751.297 136.392C752.577 134.088 753.558 130.888 754.241 126.792C755.009 122.696 755.521 117.448 755.777 111.048L756.673 89.928H806.977V157H789.825V104.904H771.777L771.521 112.712C771.18 121.501 770.326 128.797 768.961 134.6C767.596 140.403 765.676 145.011 763.201 148.424C760.812 151.752 757.825 154.141 754.241 155.592C750.657 157.043 746.433 157.811 741.569 157.896ZM822.174 129.608V114.12H860.958V129.608H822.174ZM907.29 158.28C901.829 158.28 896.922 157.384 892.57 155.592C888.218 153.715 884.506 151.155 881.434 147.912C878.362 144.584 875.973 140.829 874.266 136.648C872.645 132.467 871.834 128.072 871.834 123.464C871.834 117.149 873.242 111.389 876.058 106.184C878.959 100.893 883.055 96.6693 888.346 93.512C893.637 90.3547 899.909 88.776 907.162 88.776C914.415 88.776 920.645 90.3547 925.85 93.512C931.055 96.6693 934.938 100.808 937.498 105.928L920.73 111.048C919.279 108.573 917.359 106.696 914.97 105.416C912.581 104.051 909.935 103.368 907.034 103.368C903.791 103.368 900.805 104.221 898.074 105.928C895.429 107.549 893.338 109.896 891.802 112.968C890.266 115.955 889.498 119.453 889.498 123.464C889.498 127.389 890.266 130.888 891.802 133.96C893.423 136.947 895.557 139.336 898.202 141.128C900.847 142.835 903.791 143.688 907.034 143.688C909.082 143.688 911.002 143.347 912.794 142.664C914.671 141.981 916.335 141.043 917.786 139.848C919.237 138.653 920.303 137.288 920.986 135.752L937.754 140.872C936.218 144.2 933.957 147.187 930.97 149.832C928.069 152.477 924.613 154.568 920.602 156.104C916.677 157.555 912.239 158.28 907.29 158.28ZM963.796 157V104.904H942.548V89.928H1002.32V104.904H980.948V157H963.796ZM1052.13 158.28C1046.92 158.28 1042.31 157.128 1038.3 154.824C1034.38 152.435 1031.3 149.235 1029.09 145.224V184.264H1011.93V89.928H1026.91V101.448C1029.47 97.5227 1032.71 94.4507 1036.64 92.232C1040.56 89.928 1045.04 88.776 1050.08 88.776C1054.6 88.776 1058.74 89.672 1062.49 91.464C1066.33 93.256 1069.66 95.7733 1072.48 99.016C1075.29 102.173 1077.47 105.843 1079.01 110.024C1080.63 114.12 1081.44 118.557 1081.44 123.336C1081.44 129.821 1080.16 135.709 1077.6 141C1075.12 146.291 1071.67 150.515 1067.23 153.672C1062.88 156.744 1057.84 158.28 1052.13 158.28ZM1046.37 143.688C1049.01 143.688 1051.4 143.133 1053.53 142.024C1055.67 140.915 1057.5 139.421 1059.04 137.544C1060.66 135.581 1061.85 133.405 1062.62 131.016C1063.47 128.541 1063.9 125.981 1063.9 123.336C1063.9 120.52 1063.43 117.917 1062.49 115.528C1061.64 113.139 1060.36 111.048 1058.65 109.256C1056.95 107.379 1054.94 105.928 1052.64 104.904C1050.42 103.88 1047.99 103.368 1045.34 103.368C1043.72 103.368 1042.06 103.667 1040.35 104.264C1038.73 104.776 1037.15 105.544 1035.61 106.568C1034.08 107.592 1032.71 108.787 1031.52 110.152C1030.41 111.517 1029.6 113.011 1029.09 114.632V130.376C1030.11 132.851 1031.47 135.112 1033.18 137.16C1034.97 139.208 1037.02 140.829 1039.33 142.024C1041.63 143.133 1043.98 143.688 1046.37 143.688ZM1124.03 158.28C1118.57 158.28 1113.67 157.384 1109.31 155.592C1104.96 153.715 1101.25 151.155 1098.18 147.912C1095.19 144.669 1092.89 140.957 1091.27 136.776C1089.64 132.595 1088.83 128.2 1088.83 123.592C1088.83 118.899 1089.64 114.461 1091.27 110.28C1092.89 106.099 1095.19 102.387 1098.18 99.144C1101.25 95.9013 1104.96 93.384 1109.31 91.592C1113.67 89.7147 1118.57 88.776 1124.03 88.776C1129.5 88.776 1134.36 89.7147 1138.63 91.592C1142.98 93.384 1146.69 95.9013 1149.76 99.144C1152.83 102.387 1155.14 106.099 1156.67 110.28C1158.3 114.461 1159.11 118.899 1159.11 123.592C1159.11 128.2 1158.3 132.595 1156.67 136.776C1155.14 140.957 1152.83 144.669 1149.76 147.912C1146.78 151.155 1143.11 153.715 1138.75 155.592C1134.4 157.384 1129.5 158.28 1124.03 158.28ZM1106.5 123.592C1106.5 127.517 1107.27 131.016 1108.8 134.088C1110.34 137.075 1112.43 139.421 1115.07 141.128C1117.72 142.835 1120.71 143.688 1124.03 143.688C1127.28 143.688 1130.22 142.835 1132.87 141.128C1135.51 139.336 1137.6 136.947 1139.14 133.96C1140.76 130.888 1141.57 127.389 1141.57 123.464C1141.57 119.624 1140.76 116.168 1139.14 113.096C1137.6 110.024 1135.51 107.635 1132.87 105.928C1130.22 104.221 1127.28 103.368 1124.03 103.368C1120.71 103.368 1117.72 104.264 1115.07 106.056C1112.43 107.763 1110.34 110.152 1108.8 113.224C1107.27 116.211 1106.5 119.667 1106.5 123.592ZM1170.68 157V90.056H1187.84V134.088L1217.92 89.928H1233.53V157H1216.38V113.992L1186.68 157H1170.68ZM1202.17 83.656C1195.6 83.656 1190.44 81.992 1186.68 78.664C1182.93 75.2507 1181.05 70.8987 1181.05 65.608H1191.68C1191.68 68.168 1192.53 70.3013 1194.24 72.008C1195.94 73.7147 1198.59 74.568 1202.17 74.568C1205.76 74.568 1208.32 73.7573 1209.85 72.136C1211.47 70.5147 1212.45 68.3387 1212.8 65.608H1223.42C1223.42 70.8987 1221.54 75.2507 1217.79 78.664C1214.03 81.992 1208.83 83.656 1202.17 83.656Z" fill="#E50B19"/>
<defs>
<clipPath id="clip0_76_2">
<rect width="113" height="226" fill="white" transform="translate(146 16)"/>
</clipPath>
</defs>
</svg>
