<svg width="30" height="30" viewBox="0 0 30 30" fill="none" xmlns="http://www.w3.org/2000/svg">
<path d="M30 28.2325L22.1725 20.405C24.2058 17.9182 25.2055 14.7451 24.9648 11.5419C24.7241 8.33876 23.2615 5.35064 20.8795 3.19562C18.4974 1.04061 15.3782 -0.116413 12.167 -0.0361233C8.95586 0.0441664 5.89838 1.35563 3.62701 3.62699C1.35565 5.89835 0.0441931 8.95584 -0.0360966 12.167C-0.116386 15.3782 1.04064 18.4974 3.19565 20.8795C5.35066 23.2615 8.33879 24.7241 11.542 24.9648C14.7451 25.2054 17.9182 24.2058 20.405 22.1725L28.2325 30L30 28.2325ZM12.5 22.5C10.5222 22.5 8.58879 21.9135 6.9443 20.8147C5.2998 19.7159 4.01808 18.1541 3.2612 16.3268C2.50433 14.4995 2.30629 12.4889 2.69215 10.5491C3.078 8.60926 4.03041 6.82743 5.42893 5.4289C6.82746 4.03038 8.60928 3.07797 10.5491 2.69212C12.4889 2.30627 14.4996 2.5043 16.3268 3.26118C18.1541 4.01805 19.7159 5.29978 20.8147 6.94427C21.9135 8.58876 22.5 10.5222 22.5 12.5C22.497 15.1512 21.4425 17.693 19.5678 19.5678C17.6931 21.4425 15.1512 22.497 12.5 22.5Z" fill="black"/>
</svg>
